<?xml version="1.0" standalone="no"?>
<!DOCTYPE svg PUBLIC "-//W3C//DTD SVG 20010904//EN"
 "http://www.w3.org/TR/2001/REC-SVG-20010904/DTD/svg10.dtd">
<svg version="1.0" xmlns="http://www.w3.org/2000/svg"
 width="300.000000pt" height="300.000000pt" viewBox="0 0 300.000000 300.000000"
 preserveAspectRatio="xMidYMid meet">
<metadata>
Created by potrace 1.11, written by Peter Selinger 2001-2013
</metadata>
<g transform="translate(0.000000,300.000000) scale(0.100000,-0.100000)"
fill="#000000" stroke="none">
<path d="M332 2677 c-22 -23 -22 -28 -22 -354 l0 -331 25 -30 c15 -18 25 -42
25 -61 l0 -31 241 0 c237 0 241 0 260 -22 17 -21 18 -45 19 -350 0 -321 0
-328 -20 -328 -20 0 -20 7 -20 325 l0 325 -240 0 c-233 0 -240 1 -240 20 0 26
-15 25 -34 -2 -14 -19 -16 -70 -16 -348 l0 -326 25 -34 c16 -22 25 -47 25 -72
l0 -38 540 0 541 0 24 -27 24 -28 1 -327 0 -328 38 0 c28 0 45 -7 62 -25 l23
-25 542 0 542 0 21 23 c22 23 22 28 22 355 0 325 0 332 -20 332 -18 0 -20 7
-20 73 0 61 3 77 20 92 25 23 25 35 0 35 -20 0 -20 7 -20 325 l0 325 -240 0
-240 0 0 25 0 25 240 0 240 0 0 35 0 35 -545 0 -545 0 0 30 c0 23 -4 30 -20
30 -19 0 -20 8 -22 323 l-3 322 -62 3 c-59 3 -63 4 -63 27 l0 25 -543 0 -544
0 -21 -23z m1758 -829 c19 -21 20 -33 20 -355 0 -326 0 -333 -20 -333 -20 0
-20 7 -22 328 l-3 327 -2 -327 -3 -328 -535 0 -535 0 0 318 c0 174 -3 334 -6
355 l-7 37 546 0 546 0 21 -22z"/>
<path d="M326 985 c-14 -21 -16 -67 -16 -348 0 -313 1 -325 21 -351 l20 -26
545 0 544 0 0 23 c0 16 3 18 9 8 7 -10 10 -10 16 -1 4 7 3 15 -4 19 -7 5 -12
106 -13 332 l-3 324 -542 3 c-535 2 -543 2 -543 22 0 27 -14 25 -34 -5z"/>
</g>
</svg>
